<svg xmlns="http://www.w3.org/2000/svg" xmlns:xlink="http://www.w3.org/1999/xlink"><defs>
<clipPath id="clip0">
<rect width="12" height="7.4" fill="white" transform="translate(9 18) rotate(-90)"/>
</clipPath>
</defs><symbol id="icon-arrow-right" viewBox="0 0 25 25">
<g clip-path="url(#clip0)">
<path fill-rule="evenodd" clip-rule="evenodd" d="M9 7.4L13.6 12L9 16.6L10.4 18L16.4 12L10.4 6L9 7.4Z" fill="#2C2E3F" fill-opacity="0.5"/>
</g>

</symbol><symbol id="icon-mail" viewBox="0 0 26 20">
<path d="M24.2273 0H1.77273C0.768182 0 0 0.764706 0 1.76471V18.2353C0 19.2353 0.768182 20 1.77273 20H24.2273C25.2318 20 26 19.2353 26 18.2353V1.76471C26 0.764706 25.2318 0 24.2273 0ZM24.2273 17L19.5591 12.3529C19.2045 12 18.6727 12 18.3182 12.3529C17.9636 12.7059 17.9636 13.2353 18.3182 13.5882L22.9864 18.2353H3.01362L7.68182 13.5882C8.03636 13.2353 8.03636 12.7059 7.68182 12.3529C7.32727 12 6.79547 12 6.44092 12.3529L1.77273 17V5.70585L12.4091 13.7059C12.5864 13.8236 12.7636 13.8823 12.9409 13.8823C13.1182 13.8823 13.2954 13.8236 13.4727 13.7059L24.2273 5.70585V17ZM24.2273 1.76471V3.4706L12.9409 11.8235L1.77273 3.4706V1.76471H24.2273Z"/>
</symbol><symbol id="icon-menu-close" viewBox="0 0 24 24">
<path d="M1 23L23 1M23 23L1 1" stroke="#141517" stroke-opacity="0.2" stroke-linecap="round" stroke-linejoin="round"/>
</symbol><symbol id="icon-menu" viewBox="0 0 30 30">
<path fill-rule="evenodd" clip-rule="evenodd" d="M3.75 21H26.25V20H3.75V21ZM3.75 14.75H26.25V13.75H3.75V14.75ZM3.75 7.5V8.5H26.25V7.5H3.75Z" fill="black"/>
</symbol><symbol id="icon-phone" viewBox="0 0 16 24">
<path d="M1.0149 6.00448C0.931768 4.8083 1.19304 3.63 1.88481 2.68229C2.48454 1.82313 3.26538 1.35392 4.20655 1.07971C4.99927 0.840872 5.51885 1.13352 5.74746 2.02852C6.07406 3.36659 6.54019 4.70473 6.70943 6.11361C6.76287 6.73386 6.368 7.61083 5.94046 8.0625C4.86866 9.13407 5.09134 9.91389 5.90485 11.5357C6.15721 12.0586 6.55803 12.9626 7.33888 14.1591C8.15238 15.3645 8.58289 16.0115 9.62797 15.4627C10.7888 14.8696 11.635 15.251 12.5109 16.2084C13.1047 16.8998 13.7578 17.4937 14.3516 18.1851C15.2097 19.2133 15.1711 19.9222 14.5001 20.6484C13.2917 21.9857 11.2966 22.4277 9.81207 21.5321C8.99262 21.0444 8.17615 20.406 7.52594 19.6614C4.66085 16.3463 2.59442 12.491 1.3504 8.13999C1.15148 7.40448 1.05944 6.66017 1.0149 6.00448Z" stroke-miterlimit="10" fill="#ffffff"/>
</symbol><symbol id="icon-play-button" viewBox="0 0 65 65">
<path fill-rule="evenodd" clip-rule="evenodd" d="M32.5 65C50.4493 65 65 50.4493 65 32.5C65 14.5507 50.4493 0 32.5 0C14.5507 0 0 14.5507 0 32.5C0 50.4493 14.5507 65 32.5 65Z"/>
<path fill-rule="evenodd" clip-rule="evenodd" d="M28.6001 23.3999L41.6001 32.4999L28.6001 41.5999V23.3999Z" fill="#070707"/>
</symbol></svg>