<svg width="16" height="24" viewBox="0 0 16 24" xmlns="http://www.w3.org/2000/svg">
<path d="M1.0149 6.00448C0.931768 4.8083 1.19304 3.63 1.88481 2.68229C2.48454 1.82313 3.26538 1.35392 4.20655 1.07971C4.99927 0.840872 5.51885 1.13352 5.74746 2.02852C6.07406 3.36659 6.54019 4.70473 6.70943 6.11361C6.76287 6.73386 6.368 7.61083 5.94046 8.0625C4.86866 9.13407 5.09134 9.91389 5.90485 11.5357C6.15721 12.0586 6.55803 12.9626 7.33888 14.1591C8.15238 15.3645 8.58289 16.0115 9.62797 15.4627C10.7888 14.8696 11.635 15.251 12.5109 16.2084C13.1047 16.8998 13.7578 17.4937 14.3516 18.1851C15.2097 19.2133 15.1711 19.9222 14.5001 20.6484C13.2917 21.9857 11.2966 22.4277 9.81207 21.5321C8.99262 21.0444 8.17615 20.406 7.52594 19.6614C4.66085 16.3463 2.59442 12.491 1.3504 8.13999C1.15148 7.40448 1.05944 6.66017 1.0149 6.00448Z" stroke="#0AD9C6" stroke-width="2" stroke-miterlimit="10" fill="#ffffff"/>
</svg>
