<svg width="67" height="20" viewBox="0 0 67 20" fill="none" xmlns="http://www.w3.org/2000/svg">
<path d="M13.2455 0V19.7647H9.98141V5.74118L8.89339 7.10588L6.76465 9.83529L6.67004 9.92941L6.52812 9.83529L4.39939 7.10588L3.31137 5.69411V19.7647H0V0H3.31137L6.67004 4.23529L9.98141 0H13.2455Z" fill="#0AD9C6"/>
<path d="M8.23193 9.92938L8.13647 9.83527L8.23193 9.92938Z" fill="#0AD9C6"/>
<path d="M8.37312 9.83527L8.27851 9.92938H8.2312L8.37312 9.83527Z" fill="#0AD9C6"/>
<path d="M37.8715 5.53591L28.8252 12.1436L30.9197 14.9812L39.9659 8.37358L37.8715 5.53591Z" fill="#0AD9C6"/>
<path d="M26.4315 2.95801C22.6018 2.95801 19.4507 6.04445 19.4507 9.9025C19.4507 13.7123 22.5533 16.847 26.4315 16.847C30.2613 16.847 33.4124 13.7605 33.4124 9.9025C33.4124 6.09267 30.2613 2.95801 26.4315 2.95801ZM26.4315 13.0854C24.6378 13.0854 23.232 11.6386 23.232 9.9025C23.232 8.11815 24.6863 6.71961 26.4315 6.71961C28.1768 6.71961 29.6311 8.16638 29.6311 9.9025C29.6311 11.6386 28.1768 13.0854 26.4315 13.0854Z" fill="#0AD9C6"/>
<path d="M43.2538 2.95801C39.424 2.95801 36.2729 6.04445 36.2729 9.9025C36.2729 13.7123 39.3756 16.847 43.2538 16.847C47.0836 16.847 50.2347 13.7605 50.2347 9.9025C50.1862 6.09267 47.0836 2.95801 43.2538 2.95801ZM43.2538 13.0854C41.4601 13.0854 40.0542 11.6386 40.0542 9.9025C40.0542 8.11815 41.5086 6.71961 43.2538 6.71961C44.999 6.71961 46.4534 8.16638 46.4534 9.9025C46.4534 11.6386 44.999 13.0854 43.2538 13.0854Z" fill="#0AD9C6"/>
<path d="M67.0001 0.235291V20H63.6887V9.74117L60.8977 7.10587L58.8162 5.08235V20H55.5049V0.235291H58.7689H58.8162L62.6953 3.95294L63.6887 4.89411V0.235291H67.0001Z" fill="#0AD9C6"/>
<rect x="36.6729" y="2.95801" width="5.94695" height="3.94398" fill="#0AD9C6"/>
</svg>
